<?xml version="1.0" standalone="no"?>
<!DOCTYPE svg PUBLIC "-//W3C//DTD SVG 20010904//EN"
 "http://www.w3.org/TR/2001/REC-SVG-20010904/DTD/svg10.dtd">
<svg version="1.0" xmlns="http://www.w3.org/2000/svg"
 width="64.000000pt" height="64.000000pt" viewBox="0 0 64.000000 64.000000"
 preserveAspectRatio="xMidYMid meet">
<metadata>
Created by potrace 1.10, written by Peter Selinger 2001-2011
</metadata>
<g transform="translate(0.000000,64.000000) scale(0.100000,-0.100000)"
fill="#ffffff" stroke="none">
<path d="M75 620 c-3 -5 -6 -139 -5 -297 0 -259 2 -289 17 -301 13 -9 71 -12
233 -10 l215 3 3 39 c2 22 10 45 18 50 11 9 14 58 14 258 1 136 -2 252 -5 258
-8 14 -482 14 -490 0z m483 -257 l-3 -248 -238 -5 -237 -5 0 253 0 252 240 0
240 0 -2 -247z m-28 -298 l0 -35 -219 0 c-217 0 -220 0 -227 22 -13 43 13 48
238 48 l208 0 0 -35z"/>
<path d="M260 519 c-41 -16 -90 -71 -101 -112 -16 -60 -3 -112 39 -157 73 -76
171 -76 243 0 60 63 63 147 6 215 -48 59 -122 80 -187 54z m138 -29 c69 -42
94 -139 52 -208 -79 -130 -280 -74 -280 78 0 116 129 190 228 130z"/>
<path d="M316 388 c-4 -35 -10 -75 -13 -90 -3 -16 -1 -28 4 -28 6 0 14 28 17
63 4 34 10 74 13 90 3 15 1 27 -4 27 -6 0 -14 -28 -17 -62z"/>
<path d="M240 390 l-35 -30 35 -30 c46 -39 65 -38 21 1 l-33 31 33 28 c19 16
30 29 24 29 -5 0 -26 -13 -45 -29z"/>
<path d="M380 389 l35 -30 -25 -19 c-14 -11 -28 -20 -32 -20 -11 0 -10 -20 0
-20 4 0 23 14 42 30 l35 30 -35 30 c-19 17 -39 30 -45 30 -5 -1 6 -14 25 -31z"/>
</g>
</svg>
